#!OML:ASF F:\VICON\USERDATA\INSTALL\rory3\rory3.ASF
:FULLY-SPECIFIED
:DEGREES
1
root -1.69545 17.1022 -30.0874 3.20235 -5.29886 -3.88743
lowerback 17.2889 -0.463648 1.99904
upperback 1.09018 0.0110084 2.68593
thorax -8.5385 -0.018466 1.75983
lowerneck -18.3079 -2.41248 -2.30819
upperneck 15.2547 -2.90396 1.21572
head 7.76884 -1.39666 0.433211
rclavicle -1.05356e-014 -1.23246e-014
rhumerus -48.7134 8.7241 -96.1485
rradius 96.8973
rwrist -18.0501
rhand -19.9359 40.4447
rfingers 7.12502
rthumb 6.40174 10.5615
lclavicle -1.05356e-014 -1.23246e-014
lhumerus -45.7895 -10.2614 96.1083
lradius 86.5107
lwrist 33.9425
lhand -29.9034 0.307574
lfingers 7.12502
lthumb -3.22417 30.2629
rfemur -30.2986 7.29712 30.8433
rtibia 56.9
rfoot -18.78 -8.90625
rtoes -3.70997
lfemur -13.8553 8.6546 -13.7355
ltibia 102.109
lfoot 21.1683 -15.7174
ltoes 12.749
2
root -1.70717 17.026 -29.632 3.52552 -4.66269 -4.44088
lowerback 17.5848 -0.773793 1.76895
upperback 0.245734 -0.318956 3.54247
thorax -9.62289 -0.14183 2.93295
lowerneck -16.088 -2.15525 -3.38876
upperneck 14.9367 -2.35721 1.27192
head 7.28749 -1.2048 0.712076
rclavicle -6.85807e-015 -3.57812e-015
rhumerus -48.329 11.254 -96.0977
rradius 97.6094
rwrist -18.2365
rhand -19.7133 40.5074
rfingers 7.12502
rthumb 6.61658 10.6307
lclavicle -6.85807e-015 -3.57812e-015
lhumerus -47.7466 -8.11889 96.8697
lradius 84.8985
lwrist 33.3079
lhand -30.8628 -2.01216
lfingers 7.12502
lthumb -4.15064 27.9272
rfemur -28.9664 7.38562 31.6507
rtibia 57.3922
rfoot -20.4517 -10.3576
rtoes -5.09425
lfemur -17.5984 9.22155 -12.287
ltibia 105.32
lfoot 20.2052 -15.8533
ltoes 11.4146
3
root -1.70936 16.9518 -29.175 3.641 -4.18507 -4.2261
lowerback 17.74 -0.667138 1.61188
upperback 0.0710639 -0.198963 3.50802
thorax -9.9077 -0.0754376 2.9633
lowerneck -16.2426 -2.28665 -3.38573
upperneck 15.1799 -2.54706 1.34755
head 7.39939 -1.28836 0.713341
rclavicle 5.96354e-016 1.55052e-014
rhumerus -45.968 12.2325 -96.1519
rradius 98.0966
rwrist -18.5568
rhand -19.5943 40.495
rfingers 7.12502
rthumb 6.73149 10.622
lclavicle 5.96354e-016 1.55052e-014
lhumerus -48.6752 -7.93585 96.9739
lradius 83.7439
lwrist 33.1142
lhand -30.2603 -6.54738
lfingers 7.12502
lthumb -3.56879 23.4025
rfemur -27.556 7.34843 31.6339
rtibia 57.7902
rfoot -21.8062 -11.8502
rtoes -7.48753
lfemur -21.0463 9.7553 -12.0624
ltibia 107.895
lfoot 19.2152 -16.0031
ltoes 6.54869
4
root -1.70829 16.8836 -28.7268 3.74913 -4.29155 -3.94135
lowerback 17.6439 -0.26901 1.63466
upperback 0.273351 0.279407 3.08695
thorax -9.64371 0.137731 2.35809
lowerneck -17.086 -2.53476 -2.79463
upperneck 15.1354 -3.03116 1.50379
head 7.53432 -1.46456 0.605505
rclavicle -1.59028e-014 -2.14687e-014
rhumerus -43.5829 12.4834 -96.4557
rradius 99.2337
rwrist -18.4611
rhand -20.1548 39.7231
rfingers 7.12502
rthumb 6.19033 9.83354
lclavicle -1.59028e-014 -2.14687e-014
lhumerus -49.2658 -8.69711 96.6594
lradius 83.3268
lwrist 32.9392
lhand -29.5148 -9.44219
lfingers 7.12502
lthumb -2.84885 20.5185
rfemur -25.8563 7.72671 31.4477
rtibia 57.9394
rfoot -22.7838 -12.7515
rtoes -8.46797
lfemur -24.2353 10.7952 -12.1275
ltibia 110.067
lfoot 17.5141 -15.9721
ltoes 1.24312
5
root -1.70682 16.8411 -28.2713 3.89243 -4.44002 -3.69479
lowerback 17.3344 0.0607668 1.39578
upperback 0.440759 0.63621 2.9387
thorax -9.29526 0.313965 2.23495
lowerneck -17.6217 -2.70525 -2.71551
upperneck 15.1392 -3.30134 1.68129
head 7.63543 -1.56762 0.613806
rclavicle -1.32192e-014 -1.47101e-014
rhumerus -41.5441 13.1624 -96.4125
rradius 100.838
rwrist -18.1768
rhand -20.5288 39.548
rfingers 7.12502
rthumb 5.8293 9.64821
lclavicle -1.32192e-014 -1.47101e-014
lhumerus -50.1316 -9.02225 96.6959
lradius 83.4309
lwrist 32.6349
lhand -29.8752 -7.47873
lfingers 7.12502
lthumb -3.19698 22.477
rfemur -23.8936 8.17072 31.2495
rtibia 57.7752
rfoot -23.5639 -13.2654
rtoes -7.76627
lfemur -27.5375 11.7681 -12.3461
ltibia 111.676
lfoot 15.4119 -15.5211
ltoes -3.80203
6
root -1.7032 16.8486 -27.7754 4.15 -4.52473 -3.81344
lowerback 16.89 0.235855 1.42813
upperback 0.341951 0.873788 3.04934
thorax -9.16267 0.429282 2.2761
lowerneck -17.4537 -2.75657 -2.89039
upperneck 15.1585 -3.34908 1.77453
head 7.61892 -1.59259 0.669118
rclavicle -6.75868e-015 -1.51076e-014
rhumerus -39.2221 14.4 -96.2074
rradius 101.976
rwrist -18.4752
rhand -19.8253 39.7167
rfingers 7.12502
rthumb 6.50851 9.83667
lclavicle -6.75868e-015 -1.51076e-014
lhumerus -51.6489 -8.87415 97.0002
lradius 83.9266
lwrist 32.7347
lhand -31.0325 -1.71422
lfingers 7.12502
lthumb -4.31455 28.2218
rfemur -21.8921 8.4964 31.5147
rtibia 57.2746
rfoot -24.1509 -14.1494
rtoes -8.72159
lfemur -30.5599 12.7124 -12.1618
ltibia 112.53
lfoot 13.5104 -15.5691
ltoes -6.72992
7
root -1.70085 16.8833 -27.307 4.15367 -3.91522 -3.89807
lowerback 17.2951 0.127949 1.68801
upperback 0.0476116 0.809356 3.05494
thorax -9.71035 0.387739 2.15759
lowerneck -16.7822 -2.83888 -2.97834
upperneck 14.9028 -3.48939 1.95745
head 7.42763 -1.65211 0.736114
rclavicle 1.02374e-014 -1.03368e-014
rhumerus -38.116 15.4755 -96.3897
rradius 103.886
rwrist -19.3465
rhand -19.3859 39.2868
rfingers 7.12502
rthumb 6.93265 9.42027
lclavicle 1.02374e-014 -1.03368e-014
lhumerus -53.6189 -8.77646 97.1542
lradius 85.0041
lwrist 33.384
lhand -31.5725 1.26752
lfingers 7.12502
lthumb -4.83597 31.1923
rfemur -19.8593 8.09657 31.8817
rtibia 56.5702
rfoot -24.2888 -15.2765
rtoes -12.0304
lfemur -33.6452 12.7395 -12.2014
ltibia 112.903
lfoot 12.4603 -15.9551
ltoes -5.35311
8
root -1.68687 16.914 -26.8357 4.27329 -3.58957 -3.77756
lowerback 17.391 0.150055 1.88016
upperback -0.101394 0.870794 2.88946
thorax -9.92511 0.402942 1.85467
lowerneck -16.5053 -2.98672 -2.8914
upperneck 14.5927 -3.7368 2.07992
head 7.28538 -1.75644 0.738838
rclavicle -1.28216e-014 -3.29983e-014
rhumerus -36.2103 16.2243 -96.5599
rradius 105.484
rwrist -20.1434
rhand -19.4327 39.244
rfingers 7.12502
rthumb 6.88744 9.37604
lclavicle -1.28216e-014 -3.29983e-014
lhumerus -55.4205 -8.85381 97.1882
lradius 86.3768
lwrist 34.1603
lhand -30.8683 0.313512
lfingers 7.12502
lthumb -4.15594 30.2527
rfemur -17.7925 7.9374 31.8533
rtibia 55.734
rfoot -24.5679 -15.6639
rtoes -16.1848
lfemur -36.5696 12.7837 -12.7763
ltibia 112.843
lfoot 11.2665 -16.2475
ltoes -3.85035
9
root -1.66784 16.9419 -26.358 4.49567 -3.32516 -3.87279
lowerback 17.2977 0.282531 2.31399
upperback -0.200833 1.12108 2.75435
thorax -9.97615 0.496029 1.39727
lowerneck -16.8387 -3.22077 -2.82272
upperneck 14.8219 -4.10051 2.25805
head 7.42965 -1.90565 0.739173
rclavicle 4.96962e-016 1.19271e-015
rhumerus -34.502 16.5078 -96.4705
rradius 107.361
rwrist -20.3283
rhand -19.5596 39.6851
rfingers 7.12502
rthumb 6.76494 9.81315
lclavicle 4.96962e-016 1.19271e-015
lhumerus -56.8152 -9.27807 97.3063
lradius 87.4295
lwrist 34.9123
lhand -30.3878 -0.277045
lfingers 7.12502
lthumb -3.69199 29.6707
rfemur -15.6377 8.03551 31.9638
rtibia 54.6765
rfoot -25.1184 -14.9736
rtoes -17.6224
lfemur -39.3602 12.8223 -13.1597
ltibia 112.448
lfoot 9.87714 -16.6994
ltoes -3.77854
